<svg width="423" height="79" viewBox="0 0 423 79" fill="none" xmlns="http://www.w3.org/2000/svg">
<g clip-path="url(#clip0_222_386)">
<path d="M18.0996 31.8882C18.0996 32.1607 18.0996 32.3749 18.0996 32.5695V51.6674C18.0865 51.8653 18.1294 52.063 18.2236 52.2383C18.3177 52.4136 18.4595 52.5597 18.6329 52.6602C25.3488 57.2741 31.9856 61.9074 38.7015 66.4628C38.9042 66.5989 39.1153 66.7224 39.3335 66.8327V38.1373C39.7681 37.9816 46.8395 37.9816 47.4321 38.1373V66.7743C47.7481 66.7743 47.8469 66.7743 48.0049 66.5212C49.9801 65.1585 51.9554 63.8347 53.9306 62.472L68.0931 52.7381C68.8832 52.2125 68.7252 52.485 68.7252 51.4727V31.8492C69.6131 31.7913 70.5039 31.7913 71.3918 31.8492H76.7645C76.7645 32.1023 76.7645 32.2581 76.7645 32.4722V55.8335C76.7761 56.0112 76.7381 56.1887 76.6545 56.3466C76.5709 56.5045 76.445 56.6367 76.2904 56.729C74.4337 57.9749 72.6165 59.2987 70.7597 60.6225C62.0291 66.6575 53.2393 72.6925 44.5284 78.7275L43.9951 79.0974C43.8371 78.8832 43.6198 78.7275 43.4618 78.5134C43.3007 78.7222 43.1223 78.9176 42.9285 79.0974L42.4939 78.7859L19.2058 62.6277L10.7517 56.7874C10.5561 56.6673 10.3975 56.4969 10.2931 56.2944C10.1886 56.092 10.1423 55.8653 10.1591 55.6388V31.9466C12.8024 31.7695 15.454 31.75 18.0996 31.8882Z" fill="white"/>
<path d="M76.6858 29.844H68.6465C68.6465 29.6299 68.6465 29.4741 68.6465 29.3184V27.2548C68.6653 27.1041 68.6353 26.9515 68.5608 26.8186C68.4863 26.6858 68.3711 26.5795 68.2317 26.515C66.2565 25.1523 64.1824 23.7506 62.1677 22.3295L48.0052 12.5956C47.7873 12.4634 47.5763 12.3205 47.3731 12.1673V35.6649H39.2746V12.3036L38.682 12.6151C36.45 14.1336 34.2772 15.652 32.0254 17.1705C27.5614 20.2659 23.0973 23.3223 18.6727 26.4177C18.6727 26.4177 18.4555 26.5734 18.3567 26.6124C18.2678 26.667 18.1964 26.7454 18.151 26.8385C18.1055 26.9315 18.0878 27.0354 18.0999 27.138V29.2016C18.129 29.3756 18.129 29.5532 18.0999 29.7272H10.0014C10.0014 29.5715 10.0014 29.3573 10.0014 29.2016V23.1276C9.9919 22.9502 10.0309 22.7736 10.1143 22.616C10.1976 22.4585 10.3224 22.3259 10.4755 22.2321C14.8408 19.2536 19.2061 16.2166 23.5714 13.2186L42.2572 0.311483L42.7313 0C42.8893 0.214145 43.0473 0.369887 43.2646 0.622967C43.4234 0.400273 43.6019 0.191811 43.7979 0C43.8966 0 44.0547 0.155742 44.1732 0.194677L70.0292 18.105C72.0044 19.4677 73.9797 20.8694 75.9549 22.2321C76.1469 22.345 76.3025 22.5091 76.4038 22.7055C76.5052 22.9018 76.5481 23.1224 76.5277 23.3418C76.5277 25.2886 76.5277 27.2353 76.5277 29.1821C76.6162 29.3929 76.6695 29.6164 76.6858 29.844Z" fill="white"/>
<path d="M102.383 45.9439C104.359 38.1568 106.334 30.5254 108.507 22.7578H115.914C116.487 22.7578 116.487 22.7578 116.605 23.2834C117.869 28.3256 119.094 33.3677 120.378 38.4488C121.01 40.9212 121.603 43.4325 122.235 45.9049C122.291 46.0676 122.363 46.2242 122.452 46.3722C122.835 45.0937 123.138 43.7934 123.361 42.4786C123.677 41.1548 123.953 39.8505 124.21 38.5851C124.467 37.3197 124.803 35.9569 125.059 34.6915C125.316 33.4261 125.652 32.0634 125.909 30.798C126.165 29.5326 126.501 28.1698 126.758 26.8071C127.015 25.4444 127.351 24.179 127.607 22.9136H134.323C134.323 23.1666 134.323 23.4392 134.165 23.6339L126.264 56.2228C126.271 56.3071 126.271 56.3917 126.264 56.4759C126.264 56.69 126.106 56.7484 125.948 56.7484H119.153C119.153 56.5927 119.153 56.3786 118.995 56.2228L112.714 31.8492C112.714 31.674 112.714 31.4209 112.378 31.3236C110.146 39.7531 107.973 48.1632 105.741 56.6316H105.149H98.8873C98.3145 56.6316 98.3145 56.6316 98.1367 56.0671C96.9713 51.1807 95.8651 46.3332 94.68 41.3689C93.4948 36.4047 92.2307 30.9927 91.006 25.7948C90.8085 24.9577 90.5912 24.1206 90.4332 23.2834C90.4005 23.1097 90.4005 22.9315 90.4332 22.7578H96.6552C97.2478 22.7578 97.2478 22.7578 97.3466 23.2834C97.9392 26.0673 98.5712 28.8512 99.1638 31.5767C100.171 36.1905 101.139 40.8628 102.206 45.4766C102.224 45.6123 102.224 45.7498 102.206 45.8855C102.285 45.9439 102.344 45.9439 102.383 45.9439Z" fill="white"/>
<path d="M169.384 22.7578H184.08C185.688 22.726 187.296 22.8499 188.879 23.1277C190.521 23.4059 192.043 24.1571 193.252 25.2866C194.462 26.416 195.304 27.8732 195.674 29.4742C196.085 31.176 195.922 32.9635 195.209 34.5656C194.496 36.1676 193.273 37.4968 191.724 38.3515L191.25 38.6045C191.419 38.6984 191.578 38.8093 191.724 38.9355C193.042 39.3852 194.242 40.1165 195.24 41.0769C196.602 42.5067 197.395 44.3733 197.472 46.3332C197.55 48.5441 196.921 50.7234 195.674 52.5629C195.003 53.5542 194.129 54.3967 193.109 55.0369C192.088 55.6771 190.944 56.1008 189.749 56.2812C188.958 56.2812 188.109 56.437 187.299 56.4954C181.551 56.6901 175.803 56.5927 170.115 56.5927H169.799C169.756 56.5994 169.712 56.5959 169.67 56.5826C169.629 56.5693 169.591 56.5465 169.56 56.5162C169.529 56.4858 169.506 56.4487 169.493 56.4079C169.479 56.367 169.476 56.3237 169.483 56.2812V23.3613C169.434 23.163 169.401 22.9612 169.384 22.7578ZM181.235 51.0444H183.724C184.731 51.0444 185.699 51.0444 186.707 50.8887C187.557 50.8395 188.368 50.5211 189.019 49.9809C189.67 49.4407 190.127 48.7075 190.321 47.8906C190.433 47.3723 190.486 46.8435 190.479 46.3138C190.492 45.2879 190.12 44.2935 189.435 43.5211C188.75 42.7488 187.799 42.2528 186.766 42.1282C185.519 41.9294 184.256 41.8382 182.993 41.8556H176.356C176.001 41.8556 175.942 41.8556 175.942 42.2839V50.7719C175.935 50.8143 175.938 50.8577 175.952 50.8985C175.965 50.9393 175.988 50.9764 176.019 51.0068C176.05 51.0372 176.088 51.0599 176.129 51.0732C176.171 51.0865 176.215 51.09 176.258 51.0833H176.633C178.233 51.0444 179.714 51.0444 181.216 51.0444H181.235ZM181.077 28.2672C179.635 28.2672 178.193 28.2672 176.751 28.2672H176.376C176.333 28.2605 176.289 28.264 176.248 28.2773C176.206 28.2906 176.169 28.3134 176.138 28.3437C176.107 28.3741 176.084 28.4112 176.07 28.452C176.057 28.4929 176.053 28.5362 176.06 28.5787V35.918C176.06 36.1905 176.179 36.2879 176.435 36.249H183.349C184.242 36.2574 185.135 36.1857 186.015 36.0348C186.781 35.9449 187.5 35.6234 188.073 35.1144C188.646 34.6055 189.045 33.934 189.215 33.1925C189.354 32.623 189.354 32.0294 189.215 31.4599C189.158 30.843 188.923 30.255 188.538 29.7653C188.153 29.2755 187.634 28.9043 187.042 28.6955C186.55 28.5055 186.03 28.3938 185.502 28.3645C184.02 28.3256 182.539 28.3256 181.057 28.2672H181.077Z" fill="white"/>
<path d="M232.039 22.7578H247.367C249.041 22.7731 250.712 22.9162 252.364 23.1861C253.812 23.4044 255.17 24.0153 256.286 24.9503C257.402 25.8854 258.233 27.1079 258.685 28.4813C259.568 30.7724 259.638 33.2909 258.882 35.626C258.502 36.7952 257.858 37.8646 257 38.7545C256.141 39.6444 255.09 40.3318 253.924 40.7655C253.047 41.1015 252.142 41.362 251.218 41.5442L250.527 41.6999C250.662 41.8346 250.823 41.9406 251.001 42.0114C252.815 43.0955 254.361 44.5655 255.524 46.3138L259.356 52.2514C260.146 53.4973 260.956 54.8211 261.746 56.1449C261.865 56.3007 261.904 56.4564 262.062 56.6706C261.865 56.6706 261.687 56.6706 261.529 56.6706H254.616C254.456 56.6844 254.295 56.6511 254.155 56.5748C254.014 56.4986 253.899 56.3828 253.826 56.2423C251.85 53.4195 250.033 50.5382 248.176 47.696C247.544 46.7615 246.853 45.866 246.201 44.9121C245.985 44.6109 245.74 44.3306 245.47 44.075C244.521 43.1263 243.245 42.5635 241.895 42.4981C240.987 42.4981 240.137 42.4981 239.229 42.4981H238.715V56.6511C238.143 56.6803 237.569 56.6803 236.997 56.6511H232.098C231.979 56.2423 231.92 23.3613 232.039 22.7578ZM238.735 37.1445H239.327H245.056C246.476 37.1677 247.895 37.0831 249.302 36.8914C250.001 36.7835 250.656 36.4859 251.193 36.0321C251.731 35.5782 252.129 34.986 252.344 34.3216C252.546 33.6397 252.619 32.9272 252.562 32.2191C252.51 31.4122 252.204 30.6413 251.687 30.0134C251.17 29.3854 250.468 28.9316 249.678 28.7149C249.034 28.548 248.368 28.4758 247.702 28.5008C244.878 28.5008 242.053 28.5008 239.288 28.5008C239.189 28.5008 239.031 28.5008 238.873 28.5008C238.735 31.3236 238.735 34.2048 238.735 37.1445Z" fill="white"/>
<path d="M308.718 56.5925C308.501 56.5925 308.343 56.5925 308.185 56.5925H302.812C302.777 56.5955 302.743 56.591 302.71 56.5793C302.678 56.5676 302.648 56.5491 302.624 56.525C302.599 56.5009 302.58 56.4717 302.569 56.4397C302.557 56.4076 302.552 56.3734 302.555 56.3394V23.3611C302.538 23.1538 302.538 22.9455 302.555 22.7382C302.772 22.7382 302.871 22.7382 303.049 22.7382H308.58C308.725 22.7336 308.869 22.772 308.992 22.8483C309.115 22.9246 309.212 23.0353 309.271 23.1664L314.9 32.5109L322.406 44.8924C322.542 45.0532 322.668 45.2222 322.782 45.3986C322.808 45.2589 322.847 45.1219 322.9 44.9898V23.3611C322.881 23.1539 322.881 22.9454 322.9 22.7382H328.964C329.083 23.108 329.083 55.8333 328.964 56.573H328.451H322.861C322.693 56.5907 322.524 56.5549 322.378 56.4708C322.232 56.3867 322.117 56.2588 322.051 56.1058C318.693 50.5381 315.295 45.0287 311.898 39.5193C310.989 38.0008 310.022 36.4824 309.113 34.9639C308.993 34.7975 308.888 34.6217 308.797 34.4383C308.756 34.5726 308.723 34.7091 308.698 34.8471V55.9111C308.674 56.1381 308.68 56.3673 308.718 56.5925Z" fill="white"/>
<path d="M297.064 39.7529C297.112 42.3413 296.697 44.9177 295.84 47.3647C295.143 49.4796 293.953 51.4039 292.364 52.9829C290.776 54.5619 288.834 55.7515 286.694 56.4562C284.787 57.0878 282.779 57.3715 280.768 57.2933C278.819 57.3293 276.876 57.0464 275.02 56.4562C272.825 55.7589 270.831 54.5512 269.208 52.935C267.586 51.3188 266.382 49.3415 265.697 47.1701C265.159 45.5548 264.821 43.8814 264.69 42.1863C264.591 40.598 264.591 39.0051 264.69 37.4167C264.821 34.6408 265.627 31.9366 267.04 29.5323C268.15 27.5672 269.728 25.8973 271.637 24.6663C273.547 23.4353 275.732 22.68 278.003 22.4655C279.639 22.2417 281.296 22.2025 282.941 22.3487C285.96 22.5543 288.843 23.6638 291.205 25.5286C293.566 27.3934 295.294 29.9246 296.156 32.7834C296.638 34.3408 296.936 35.9478 297.044 37.5725C297.005 38.2344 297.064 39.0326 297.064 39.7529ZM290.21 39.6555C290.21 38.9158 290.21 38.1954 290.092 37.5141C290.01 36.144 289.703 34.7961 289.183 33.5232C288.759 32.3573 288.076 31.2996 287.184 30.4272C286.292 29.5548 285.214 28.8899 284.028 28.4811C282.642 28.0237 281.17 27.8838 279.722 28.0722C278.65 28.1437 277.604 28.425 276.644 28.8997C275.684 29.3743 274.83 30.0328 274.132 30.8366C273.152 31.9643 272.443 33.2951 272.058 34.7302C271.575 36.5923 271.376 38.5145 271.465 40.4342C271.493 42.0931 271.766 43.7391 272.275 45.3206C272.645 46.487 273.251 47.5676 274.055 48.4976C274.859 49.4276 275.846 50.1878 276.956 50.7327C278.311 51.3637 279.805 51.6514 281.302 51.5698C282.731 51.53 284.126 51.1277 285.351 50.4017C287.25 49.2374 288.655 47.4312 289.301 45.3206C289.832 43.4747 290.137 41.5728 290.21 39.6555Z" fill="white"/>
<path d="M407.974 32.3746L401.377 32.6861C401.377 32.4719 401.377 32.3162 401.219 32.1604C401.128 31.7037 400.982 31.2593 400.784 30.8366C400.541 30.1446 400.121 29.5263 399.563 29.0419C399.006 28.5575 398.331 28.2234 397.604 28.0722C395.765 27.5923 393.823 27.6464 392.014 28.228C391.526 28.3958 391.061 28.6248 390.632 28.9093C390.25 29.1423 389.933 29.4651 389.71 29.8487C389.486 30.2323 389.363 30.6647 389.351 31.1069C389.34 31.5491 389.44 31.9872 389.642 32.3818C389.845 32.7764 390.144 33.1151 390.513 33.3674C390.912 33.6437 391.343 33.8724 391.797 34.0488C393.326 34.6845 394.913 35.1735 396.538 35.5089C398.558 35.966 400.539 36.5779 402.463 37.3389C403.878 37.8858 405.168 38.7066 406.256 39.7529C407.798 41.335 408.721 43.404 408.863 45.5932C409.044 47.1161 408.876 48.6597 408.369 50.1097C407.88 51.6122 407.028 52.975 405.885 54.0806C404.743 55.1861 403.345 56.0014 401.812 56.4562C400.303 56.9024 398.744 57.164 397.17 57.2349C396.038 57.2933 394.904 57.2933 393.772 57.2349C391.588 57.1631 389.451 56.5898 387.53 55.5606C385.171 54.2167 383.409 52.0493 382.592 49.4867C382.213 48.4336 381.948 47.3438 381.802 46.2356V45.7489L388.242 45.1065C388.272 45.3609 388.339 45.61 388.439 45.8463C388.665 46.5945 388.936 47.3291 389.249 48.0461C389.641 48.9278 390.249 49.7002 391.017 50.2946C391.786 50.889 392.691 51.2869 393.654 51.453C395.351 51.7775 397.102 51.7109 398.77 51.2583C399.871 50.9341 400.827 50.2469 401.476 49.3115C401.84 48.8559 402.097 48.3258 402.227 47.7599C402.356 47.1941 402.356 46.6068 402.226 46.0409C402.057 45.3048 401.621 44.6545 401.002 44.211C400.359 43.7386 399.637 43.3827 398.868 43.1597L393.614 41.758C391.717 41.3107 389.875 40.6578 388.123 39.8113C387.001 39.28 385.998 38.5325 385.174 37.613C384.349 36.6935 383.72 35.6207 383.323 34.4576C382.649 32.3423 382.787 30.0563 383.713 28.0352C384.638 26.014 386.285 24.3989 388.34 23.4973C389.906 22.8253 391.575 22.4173 393.278 22.2903C394.593 22.1949 395.914 22.1949 397.229 22.2903C398.942 22.3962 400.621 22.8051 402.187 23.4973C403.642 24.1465 404.911 25.1435 405.876 26.3979C406.842 27.6523 407.475 29.1245 407.718 30.6809C407.718 31.1676 407.717 31.6348 407.876 32.0436L407.974 32.3746Z" fill="white"/>
<path d="M161.463 41.6412H145.385C144.654 41.6412 144.654 41.6412 144.654 42.381V50.6159C144.654 51.0247 144.654 51.0831 145.128 51.0831H163.439V56.5925C163.063 56.6898 138.689 56.7482 138.057 56.5925C138.057 56.3978 138.057 56.1252 138.057 55.9111V23.3611C138.031 23.1347 138.031 22.9061 138.057 22.6797H162.787C162.787 24.6265 162.787 26.4175 162.787 28.3059H145.385C144.654 28.3059 144.654 28.1891 144.654 29.0262V35.6257C144.654 35.9372 144.654 35.9761 145.069 36.0345H160.871C161.661 36.0345 161.661 36.0345 161.661 36.7743V40.882C161.523 41.2324 161.523 41.3882 161.463 41.6412Z" fill="white"/>
<path d="M377.397 32.0439L370.859 33.6208C370.809 33.4427 370.75 33.2673 370.682 33.0952C370.321 31.7932 369.604 30.6144 368.608 29.6883C367.261 28.4804 365.489 27.8378 363.669 27.8973C362.428 27.8652 361.198 28.1301 360.083 28.6692C358.969 29.2083 358.003 30.0055 357.27 30.9926C356.536 32.0256 356.013 33.1893 355.729 34.419C355.314 36.2915 355.135 38.2073 355.196 40.123C355.166 41.8451 355.386 43.5625 355.847 45.2235C356.206 46.8082 357.015 48.2598 358.178 49.4091C359.511 50.6814 361.281 51.4114 363.136 51.4532C364.036 51.5236 364.941 51.417 365.799 51.1396C366.657 50.8622 367.451 50.4196 368.134 49.8374C368.983 49.1408 369.658 48.2617 370.109 47.2677C370.484 46.4695 370.701 45.6324 371.017 44.7953C371.017 44.6395 371.116 44.4838 371.175 44.2696L377.397 46.3137V46.4695C376.879 48.5781 375.939 50.5636 374.632 52.3098C373.165 54.2882 371.085 55.7434 368.706 56.4564C365.618 57.432 362.305 57.4862 359.186 56.6122C357.237 56.0972 355.426 55.1681 353.88 53.8901C352.335 52.6122 351.091 51.0163 350.238 49.2144C349.291 47.3431 348.695 45.3183 348.48 43.2378C348.309 41.7256 348.256 40.2026 348.322 38.6824C348.344 35.9184 348.943 33.1885 350.08 30.6617C351.022 28.4917 352.508 26.5927 354.397 25.1424C356.287 23.692 358.519 22.7376 360.884 22.3684C363.472 21.8871 366.138 22.0138 368.667 22.7383C370.636 23.2466 372.439 24.2461 373.903 25.6407C375.366 27.0353 376.441 28.778 377.022 30.7006C377.022 31.0121 377.22 31.382 377.338 31.6935C377.321 31.7525 377.317 31.8147 377.327 31.8754C377.337 31.936 377.361 31.9936 377.397 32.0439Z" fill="white"/>
<path d="M217.501 56.5925C217.284 56.5925 217.126 56.5925 216.968 56.5925H211.042C211.007 56.5952 210.971 56.5907 210.938 56.5792C210.904 56.5676 210.874 56.5494 210.848 56.5257C210.822 56.5019 210.801 56.4731 210.787 56.441C210.773 56.409 210.765 56.3744 210.765 56.3395V29.2015C210.784 28.9162 210.784 28.6301 210.765 28.3449H200.889C200.72 26.4992 200.72 24.6422 200.889 22.7966H227.279C227.303 22.7846 227.33 22.7783 227.358 22.7783C227.385 22.7783 227.412 22.7846 227.437 22.7966C227.565 24.6503 227.565 26.5106 227.437 28.3643H218.232C217.541 28.3643 217.541 28.3643 217.541 29.0457V55.8722C217.498 56.1099 217.485 56.3517 217.501 56.5925Z" fill="white"/>
<path d="M342.83 56.5928H336.332C336.233 56.2424 336.174 23.4977 336.332 22.8164C336.648 22.719 342.258 22.6606 342.87 22.8164C342.89 23.1862 342.949 55.9699 342.83 56.5928Z" fill="white"/>
</g>
<defs>
<clipPath id="clip0_222_386">
<rect width="423" height="79" fill="white"/>
</clipPath>
</defs>
</svg>
