<svg width="476" height="537" viewBox="0 0 476 537" fill="none" xmlns="http://www.w3.org/2000/svg">
<g filter="url(#filter0_ddd_2301_214)">
<path d="M331.646 285.577L331.651 285.575C350.921 277.781 371.27 267.461 386.799 251.057C402.418 234.558 413 212.078 413 180.353C413 148.02 401.38 118.517 374.977 97.169C348.659 75.889 308.011 63 250.472 63C183.557 63 136.63 80.2539 106.403 107.704C76.1506 135.177 63 172.527 63 211.919V224C63 227.866 66.134 231 70 231H147.855C151.721 231 154.855 227.866 154.855 224V204.772C154.855 186.331 159.997 173.17 173.104 164.381C186.536 155.376 208.821 150.596 244.091 150.596C277.663 150.596 296.705 154.487 307.295 160.48C312.496 163.424 315.594 166.842 317.435 170.541C319.296 174.281 319.985 178.539 319.985 183.331C319.985 192.634 316.989 199.114 310.818 204.708C304.436 210.494 294.595 215.392 280.668 221.052L280.658 221.056L240.083 237.719C240.077 237.722 240.072 237.724 240.067 237.726C221.955 244.925 205.103 253.751 192.772 266.488C180.339 279.331 172.639 296.011 172.639 318.529V335.375C172.639 339.241 175.773 342.375 179.639 342.375H258.654C262.52 342.375 265.654 339.241 265.654 335.375V332.228C265.654 324.969 266.52 319.93 269.533 315.637C272.593 311.277 278.188 307.235 288.735 302.843C288.74 302.84 288.746 302.838 288.751 302.836L331.646 285.577ZM272.616 467V377.919C272.616 374.053 269.482 370.919 265.616 370.919H173.838C169.972 370.919 166.838 374.053 166.838 377.919V467C166.838 470.866 169.972 474 173.838 474H265.616C269.482 474 272.616 470.866 272.616 467Z" stroke="url(#paint0_linear_2301_214)" stroke-opacity="0.7" stroke-width="6"/>
</g>
<defs>
<filter id="filter0_ddd_2301_214" x="0" y="0" width="476" height="537" filterUnits="userSpaceOnUse" color-interpolation-filters="sRGB">
<feFlood flood-opacity="0" result="BackgroundImageFix"/>
<feColorMatrix in="SourceAlpha" type="matrix" values="0 0 0 0 0 0 0 0 0 0 0 0 0 0 0 0 0 0 127 0" result="hardAlpha"/>
<feOffset/>
<feGaussianBlur stdDeviation="11.7"/>
<feColorMatrix type="matrix" values="0 0 0 0 0.419608 0 0 0 0 0.333333 0 0 0 0 0.847059 0 0 0 1 0"/>
<feBlend mode="normal" in2="BackgroundImageFix" result="effect1_dropShadow_2301_214"/>
<feColorMatrix in="SourceAlpha" type="matrix" values="0 0 0 0 0 0 0 0 0 0 0 0 0 0 0 0 0 0 127 0" result="hardAlpha"/>
<feOffset/>
<feGaussianBlur stdDeviation="23.4"/>
<feColorMatrix type="matrix" values="0 0 0 0 0.419608 0 0 0 0 0.333333 0 0 0 0 0.847059 0 0 0 1 0"/>
<feBlend mode="normal" in2="effect1_dropShadow_2301_214" result="effect2_dropShadow_2301_214"/>
<feColorMatrix in="SourceAlpha" type="matrix" values="0 0 0 0 0 0 0 0 0 0 0 0 0 0 0 0 0 0 127 0" result="hardAlpha"/>
<feOffset/>
<feGaussianBlur stdDeviation="30"/>
<feColorMatrix type="matrix" values="0 0 0 0 0.419608 0 0 0 0 0.333333 0 0 0 0 0.847059 0 0 0 1 0"/>
<feBlend mode="normal" in2="effect2_dropShadow_2301_214" result="effect3_dropShadow_2301_214"/>
<feBlend mode="normal" in="SourceGraphic" in2="effect3_dropShadow_2301_214" result="shape"/>
</filter>
<linearGradient id="paint0_linear_2301_214" x1="103.84" y1="104.123" x2="353.888" y2="505.92" gradientUnits="userSpaceOnUse">
<stop stop-color="#15BFFD"/>
<stop offset="1" stop-color="#9C37FD"/>
</linearGradient>
</defs>
</svg>
